<svg width="100" height="100" viewBox="0 0 100 100" fill="none" xmlns="http://www.w3.org/2000/svg">
<path d="M50.2075 8.28857L43.2007 14.5508L34.021 12.5122L31.0791 21.4355L22.0947 24.2676L24.0234 33.4839L17.6636 40.4175L23.9258 47.4243L21.8872 56.604L30.8105 59.5581L31.25 60.9253V92.1143L50 84.6191L68.75 92.1143V60.3516L68.9331 59.8145L77.8931 56.9824L75.9766 47.7661L82.3364 40.8325L76.0742 33.8257L78.1128 24.6338L69.1895 21.7041L66.3574 12.7197L57.1411 14.6484L50.2075 8.28857ZM50.1587 16.7114L55.2856 21.4111L56.8481 21.0815L62.0972 19.9951L64.1724 26.6357L70.7886 28.8086L69.2871 35.5957L73.9136 40.7837L69.2139 45.9106L70.6299 52.7222L64.0015 54.7974L61.8164 61.4136L55.0293 59.9121L49.8413 64.5386L44.7144 59.8389L37.9028 61.2549L37.5 59.9609V59.375H37.3169L35.8276 54.6265L29.2114 52.4414L30.7129 45.6543L26.0864 40.4663L30.7861 35.3394L29.3701 28.54L35.9985 26.4404L38.1836 19.8364L44.9707 21.3379L50.1587 16.7114ZM50 25C41.4062 25 34.375 32.0312 34.375 40.625C34.375 49.2188 41.4062 56.25 50 56.25C58.5938 56.25 65.625 49.2188 65.625 40.625C65.625 32.0312 58.5938 25 50 25ZM50 31.25C55.2124 31.25 59.375 35.4126 59.375 40.625C59.375 45.8374 55.2124 50 50 50C44.7876 50 40.625 45.8374 40.625 40.625C40.625 35.4126 44.7876 31.25 50 31.25ZM42.8589 66.6016L49.7925 72.9614L56.7993 66.6992L62.5 67.9688V82.8857L50 77.8809L37.5 82.8857V67.7246L42.8589 66.6016Z" fill="#F34D4D"/>
</svg>
