<svg width="100" height="100" viewBox="0 0 100 100" fill="none" xmlns="http://www.w3.org/2000/svg">
<path d="M50.0003 4.16673L42.0088 25.4802L16.667 16.6667L25.4805 42.0085L4.16699 50.0001L25.4805 57.9916L16.667 83.3334L42.0088 74.5199L50.0003 95.8334L57.9919 74.5199L83.3337 83.3334L74.5202 57.9916L95.8337 50.0001L74.5202 42.0085L83.3337 16.6667L57.9919 25.4802L50.0003 4.16673ZM50.0003 27.8972L54.696 40.4216L56.0225 43.9698L59.5706 45.2963L72.1032 50.0001L59.5788 54.6957L56.0306 56.0222L54.7041 59.5704L50.0003 72.1029L45.3047 59.5785L43.9782 56.0303L40.43 54.7038L27.8975 50.0001L40.4219 45.3044L43.9701 43.9779L45.2965 40.4297L50.0003 27.8972Z" fill="#39C5C4"/>
</svg>
