<svg width="100" height="100" viewBox="0 0 100 100" fill="white" xmlns="http://www.w3.org/2000/svg">
<path d="M30.7615 5.2002L27.136 6.40869C22.0579 8.10547 18.6766 10.3394 16.699 13.1226C14.7093 15.9058 14.3919 19.1284 14.9046 21.7041C15.3684 24.0356 16.4305 25.8789 17.407 27.3682C16.5159 27.8931 16.3084 27.71 15.3684 28.6499C12.8294 31.189 10.7664 35.9375 12.6585 41.6138C14.0867 45.9106 17.407 48.23 20.0926 49.1821C20.8494 49.4507 20.8616 49.292 21.533 49.4141C21.3377 50.5005 21.118 50.6348 21.1424 52.1484C21.2034 55.6274 22.4363 60.3394 26.8186 63.1714C29.1258 64.6606 31.7015 65.4175 34.2283 65.8203L16.9309 88.8794L20.7151 90.3931C37.805 97.2412 57.2386 90.4663 57.2386 90.4663L59.3748 89.7461V77.7222C61.7918 77.3682 65.1853 76.709 69.3723 74.9512C75.9886 72.1802 83.4593 66.5161 84.3626 56.5308C84.7166 52.6611 83.8133 48.584 82.9099 45.2759C82.678 44.4092 82.6536 44.4824 82.4217 43.75H92.6878L90.2586 39.1602C90.2586 39.1602 88.6228 35.9497 87.7683 34.1919C90.2097 28.7476 88.4397 22.8149 83.9353 20.3125C82.6902 19.6167 81.2864 19.1895 79.7971 19.0674C75.366 18.689 70.239 20.9473 66.2596 26.2451C65.8567 26.7822 64.1844 28.7598 63.2322 29.9072C62.9392 29.3335 62.6219 28.6255 62.2679 27.7466C60.8763 24.2432 59.3748 18.4082 59.3748 9.375V6.25H56.2498C52.5999 6.25 49.658 7.20215 47.5584 8.88672C45.4588 10.5713 44.3479 12.8296 43.8474 14.8682C43.1394 17.6636 43.6033 18.8355 43.8474 20.2026C42.7488 20.7031 41.9676 20.8008 40.3684 22.3999C39.4163 23.3521 38.5374 24.6094 37.9026 26.0986C34.7044 21.582 32.0921 15.9424 31.2254 8.98437L30.7615 5.2002ZM53.4544 13.2446C53.845 20.6543 55.0169 26.4282 56.4817 30.0659C57.3606 32.2632 58.3128 33.8867 59.0574 34.9731C56.8968 37.5488 56.3108 38.2813 54.6385 40.2344C52.4168 39.1602 47.9368 36.6577 43.3592 32.3486C42.6878 29.4556 43.5667 28.0396 44.7874 26.8188C46.1546 25.4517 47.8636 24.8413 47.8636 24.8413L50.6101 23.9258L49.9021 21.1182C49.9021 21.1182 49.365 18.5547 49.9021 16.3818C50.1829 15.2954 50.6346 14.4287 51.4646 13.7695C51.8064 13.4888 52.8684 13.4644 53.4544 13.2446ZM26.074 14.1846C28.1614 23.1689 32.7513 30.0415 37.5974 35.1074C37.6219 35.1929 37.6341 35.2783 37.6585 35.3638L37.7928 35.3149C43.3103 41.0278 48.9622 44.3115 51.8308 45.7764L55.5052 48.9014C55.5052 48.9014 68.2371 33.9966 71.24 30.0049H71.2522C75.3172 24.585 78.8938 24.6704 80.908 25.7812C82.9099 26.8921 84.094 29.1504 81.7747 32.6416L80.847 34.0332L81.4939 35.5713C81.7503 36.2061 82.031 36.6455 82.4583 37.5H73.5349L75.2073 41.7603C75.2073 41.7603 76.074 43.9697 76.8919 46.9238C77.6975 49.8779 78.3567 53.6133 78.137 55.9692C77.4778 63.1714 72.4485 66.8823 66.9554 69.1895C61.4622 71.4966 56.0423 71.875 56.0423 71.875L53.1248 72.0703V84.9609C50.427 85.7422 39.1111 88.4399 27.2703 85.5103L41.7967 66.1621C45.0315 66.0034 47.4607 65.5762 47.4607 65.5762L46.2889 59.4238C46.2889 59.4238 43.5911 59.9487 40.0999 59.9731C36.6209 60.0098 32.5315 59.4238 30.2122 57.9224C27.9539 56.4575 27.429 54.3335 27.3924 52.0508C27.3557 49.7559 27.9661 47.8638 27.9661 47.8638L29.4187 43.5059L24.8289 43.75C24.8289 43.75 23.6326 43.811 22.1922 43.2983C20.7395 42.7734 19.3724 41.9678 18.5911 39.6362C17.3582 35.9375 18.4202 34.436 19.7874 33.0688C21.1546 31.7017 22.8636 31.0913 22.8636 31.0913L27.6609 29.4922L24.0843 25.9155C24.0843 25.9155 21.5574 23.1323 21.0325 20.4834C20.764 19.1528 20.8372 18.0786 21.7771 16.7603C22.3387 15.9912 24.5237 15.0757 26.074 14.1846Z" />
</svg>
