<svg width="100" height="100" viewBox="0 0 100 100" fill="white" xmlns="http://www.w3.org/2000/svg">
<path d="M78.125 6.86035L68.75 20.9229V62.5H65.625V68.75H75V79.0039C73.1445 80.1025 71.875 82.0923 71.875 84.375C71.875 87.793 74.707 90.625 78.125 90.625C81.543 90.625 84.375 87.793 84.375 84.375C84.375 82.0923 83.1055 80.1025 81.25 79.0039V68.75H90.625V62.5H87.5V20.9229L78.125 6.86035ZM35.9497 9.22851L35.0098 9.52148C35.0098 9.52148 26.0986 12.2681 11.792 15.6006L9.375 16.1621V59.375C9.375 67.8955 16.0156 75.1953 22.1191 80.7617C28.2104 86.3403 34.2773 90.1367 34.2773 90.1367L35.9375 91.1987L37.5977 90.1367C37.5977 90.1367 43.6646 86.3403 49.7559 80.7617C55.8594 75.1953 62.5 67.8955 62.5 59.375V16.2598L60.083 15.6982C45.7886 12.3779 36.8897 9.52148 36.8897 9.52148L35.9497 9.22851ZM35.9253 15.7227C36.5479 15.9302 44.7754 18.3472 56.25 21.1426V43.7378L18.0908 20.4102C28.0151 17.9565 35.3638 15.9058 35.9253 15.7227ZM78.125 18.1396L81.25 22.8271V62.5H75V22.8271L78.125 18.1396ZM15.625 26.2329L56.25 51.062V57.0801L15.625 32.2632V26.2329ZM15.625 39.5874L55.1758 63.7451C54.541 65.1978 53.6743 66.6992 52.6123 68.2129L15.625 45.6055V39.5874ZM15.625 52.9297L48.584 73.0835C47.5952 74.1333 46.6064 75.1953 45.5566 76.1597C40.7593 80.5298 37.2559 82.7148 35.9375 83.5815C34.6191 82.7148 31.1157 80.5298 26.3184 76.1597C20.7031 71.0205 15.625 64.2456 15.625 59.375V52.9297Z"/>
</svg>
