<svg width="100" height="100" viewBox="0 0 100 100" fill="white" xmlns="http://www.w3.org/2000/svg">
<path d="M50 8.39844L48.0469 10.0586L38.6719 17.8711L37.5977 18.75H34.375V25H37.5V31.25H34.375V37.5H36.7188L25 84.375H31.25L32.0312 81.1523L65.7227 72.168L68.75 84.375H75L63.2812 37.5H65.625V31.25H62.5V25H65.625V18.75H62.4023L61.3281 17.8711L51.9531 10.0586L50 8.39844ZM43.75 25H56.25V31.25H43.75V25ZM42.9688 37.5H57.0312L58.5938 43.6523L40.2344 48.5352L42.9688 37.5ZM60.8398 52.832L63.4766 63.0859L34.668 70.7031L37.5977 58.9844L60.8398 52.832Z" />
</svg>
