<svg width="40" height="40" viewBox="0 0 47 47" class="fill-indigo-900 stroke-indigo-900"  fill="#312e81"
                            xmlns="http://www.w3.org/2000/svg">
                            <path
                                d="M24.4774 4.89584C20.439 4.89584 17.1337 8.20115 17.1337 12.2396C17.1337 16.278 20.439 19.5833 24.4774 19.5833C28.5159 19.5833 31.8212 16.278 31.8212 12.2396C31.8212 8.20115 28.5159 4.89584 24.4774 4.89584ZM23.4256 21.5417C21.0903 21.5417 18.8955 22.4506 17.2446 24.1005C15.5937 25.7504 14.6838 27.9462 14.6838 30.2815V33.2917H23.0068V31.1268C22.1431 30.7488 21.538 29.8881 21.538 28.8854C21.538 27.5342 22.6347 26.4375 23.9859 26.4375C25.3372 26.4375 26.4338 27.5342 26.4338 28.8854C26.4338 29.8881 25.8287 30.7479 24.9651 31.1268V33.2917H33.288V30.2815C33.288 27.9462 32.3791 25.7514 30.7292 24.1005C29.0773 22.4506 26.8815 21.5417 24.5482 21.5417H23.4256ZM11.2568 35.25C11.0621 35.2473 10.8689 35.2832 10.6883 35.3558C10.5077 35.4284 10.3433 35.5361 10.2047 35.6728C10.0661 35.8094 9.95602 35.9723 9.8809 36.1518C9.80578 36.3314 9.76709 36.5241 9.76709 36.7188C9.76709 36.9134 9.80578 37.1061 9.8809 37.2857C9.95602 37.4652 10.0661 37.6281 10.2047 37.7647C10.3433 37.9014 10.5077 38.0092 10.6883 38.0817C10.8689 38.1543 11.0621 38.1903 11.2568 38.1875H11.7463V43.5729C11.7436 43.7873 11.7878 43.9997 11.8759 44.1951C11.9639 44.3906 12.0937 44.5644 12.2561 44.7044C12.4185 44.8443 12.6095 44.9471 12.8158 45.0053C13.0221 45.0636 13.2387 45.076 13.4503 45.0417H34.5158C34.7278 45.0769 34.945 45.0652 35.152 45.0074C35.3591 44.9495 35.5509 44.847 35.7139 44.7069C35.877 44.5668 36.0073 44.3927 36.0957 44.1967C36.1841 44.0008 36.2284 43.7879 36.2255 43.5729V38.1875H36.7151C36.9097 38.1903 37.103 38.1543 37.2836 38.0817C37.4642 38.0092 37.6286 37.9014 37.7672 37.7647C37.9058 37.6281 38.0158 37.4652 38.0909 37.2857C38.1661 37.1061 38.2048 36.9134 38.2048 36.7188C38.2048 36.5241 38.1661 36.3314 38.0909 36.1518C38.0158 35.9723 37.9058 35.8094 37.7672 35.6728C37.6286 35.5361 37.4642 35.4284 37.2836 35.3558C37.103 35.2832 36.9097 35.2473 36.7151 35.25H34.7568H13.2151H11.2568Z" />
                        </svg>