<?xml version="1.0" encoding="UTF-8" standalone="no"?>
<!DOCTYPE svg PUBLIC "-//W3C//DTD SVG 1.1//EN" "http://www.w3.org/Graphics/SVG/1.1/DTD/svg11.dtd">
<svg width="100%" height="100%" viewBox="0 0 196 53" version="1.1" xmlns="http://www.w3.org/2000/svg" xmlns:xlink="http://www.w3.org/1999/xlink" xml:space="preserve" xmlns:serif="http://www.serif.com/" style="fill-rule:evenodd;clip-rule:evenodd;stroke-linejoin:round;stroke-miterlimit:2;">
    <g transform="matrix(1,0,0,1,-13.32,-11.1)">
        <path d="M177.099,61.694C177.044,61.836 177.018,61.987 177.022,62.14C177.026,62.292 177.06,62.442 177.121,62.581C177.183,62.72 177.272,62.846 177.382,62.951C177.493,63.056 177.623,63.138 177.765,63.193C178.052,63.303 178.371,63.295 178.652,63.17C178.791,63.108 178.917,63.02 179.022,62.909C179.127,62.799 179.209,62.669 179.264,62.527C180.243,59.991 182.362,58.186 184.571,56.726C185.381,58.01 186.994,59.792 189.774,59.792C193.561,59.792 197.219,57.38 197.373,57.278C197.662,57.086 197.849,56.774 197.883,56.429C197.916,56.083 197.795,55.74 197.55,55.494C197.448,55.392 195.155,53.153 190.712,52.868C191.657,52.254 192.567,51.613 193.422,50.95C194.4,51.743 196.233,52.836 198.972,52.836C203.561,52.836 205.818,47.715 205.912,47.497C206.147,46.949 205.928,46.312 205.404,46.023C205.308,45.969 203.011,44.721 200.636,44.721C199.928,44.721 199.203,44.876 198.489,45.106C198.861,44.459 199.199,43.79 199.504,43.1C199.925,43.192 200.388,43.263 200.914,43.263C202.526,43.263 204.465,42.698 205.803,40.738C207.635,38.054 208.286,33.48 208.312,33.286C208.364,32.917 208.234,32.545 207.963,32.288C207.692,32.031 207.308,31.921 206.946,31.989C206.749,32.026 203.668,32.643 201.363,34.389C201.363,34.355 201.367,34.322 201.367,34.287C201.367,33.764 201.357,33.245 201.335,32.727C203.965,31.507 205.593,29.677 205.914,27.501C206.328,24.692 205.288,21.511 204.148,19.746C203.971,19.473 203.689,19.288 203.367,19.235C203.05,19.179 202.717,19.263 202.461,19.463C202.355,19.546 200.483,21.104 199.565,24.558C199.409,24.223 199.23,23.896 199.049,23.571L199.049,19.638C199.049,14.864 194.114,11.445 193.904,11.303C193.636,11.121 193.301,11.055 192.989,11.131C192.674,11.204 192.405,11.406 192.245,11.688C192.156,11.842 190.108,15.507 191.307,18.963C192.418,22.166 196.098,24.221 197.029,24.703C197.329,25.241 197.59,25.801 197.815,26.38C196.335,25.126 194.732,24.404 193.723,23.955C193.364,23.796 192.95,23.827 192.62,24.042C192.291,24.254 192.093,24.621 192.093,25.013C192.093,26.769 192.093,29.174 193.71,31.638C195.174,33.871 197.619,34.82 199.006,35.2C198.95,36.425 198.784,37.614 198.517,38.764C198.03,37.668 197.271,36.648 196.205,35.727C195.756,35.339 195.086,35.356 194.656,35.759C194.552,35.858 192.093,38.201 192.093,42.296C192.093,44.112 193.119,45.85 194.226,47.083C194.131,47.189 194.047,47.305 193.95,47.408C193.273,48.13 192.348,48.876 191.325,49.621C191.964,47.769 192.083,46.081 192.091,45.955C192.113,45.612 191.98,45.278 191.731,45.04C191.481,44.804 191.137,44.693 190.8,44.73C190.63,44.75 186.605,45.243 184.218,47.85C182.274,49.972 182.804,53.252 183.212,54.824C180.661,56.522 178.221,58.787 177.099,61.694Z" style="fill:url(#_Linear1);fill-rule:nonzero;"/>
    </g>
    <g transform="matrix(1,0,0,1,-13.32,-11.1)">
        <path d="M44.544,61.694C44.599,61.836 44.625,61.987 44.621,62.14C44.617,62.292 44.583,62.442 44.522,62.581C44.46,62.72 44.371,62.846 44.261,62.951C44.15,63.056 44.021,63.138 43.878,63.193C43.591,63.303 43.272,63.295 42.991,63.17C42.852,63.108 42.726,63.02 42.621,62.909C42.516,62.799 42.434,62.669 42.379,62.527C41.4,59.991 39.281,58.186 37.072,56.726C36.262,58.01 34.649,59.792 31.869,59.792C28.083,59.792 24.424,57.38 24.27,57.278C23.981,57.086 23.794,56.774 23.761,56.429C23.727,56.083 23.848,55.74 24.093,55.494C24.195,55.392 26.488,53.153 30.931,52.868C29.986,52.254 29.076,51.613 28.221,50.95C27.243,51.743 25.41,52.836 22.671,52.836C18.082,52.836 15.825,47.715 15.732,47.497C15.496,46.949 15.715,46.312 16.239,46.023C16.335,45.969 18.632,44.721 21.007,44.721C21.715,44.721 22.44,44.876 23.154,45.106C22.782,44.459 22.444,43.79 22.139,43.1C21.718,43.192 21.255,43.263 20.729,43.263C19.117,43.263 17.178,42.698 15.84,40.738C14.009,38.054 13.357,33.48 13.331,33.286C13.279,32.917 13.409,32.545 13.68,32.288C13.951,32.031 14.335,31.921 14.697,31.989C14.894,32.026 17.975,32.643 20.28,34.389C20.28,34.355 20.276,34.322 20.276,34.287C20.276,33.764 20.286,33.245 20.308,32.727C17.677,31.507 16.05,29.677 15.729,27.501C15.315,24.692 16.355,21.511 17.495,19.746C17.672,19.473 17.954,19.288 18.277,19.235C18.593,19.179 18.926,19.263 19.182,19.463C19.288,19.546 21.16,21.104 22.078,24.558C22.234,24.223 22.413,23.896 22.594,23.571L22.594,19.638C22.594,14.864 27.529,11.445 27.739,11.303C28.007,11.121 28.342,11.055 28.654,11.131C28.969,11.204 29.238,11.406 29.398,11.688C29.487,11.842 31.535,15.507 30.336,18.963C29.225,22.166 25.545,24.221 24.614,24.703C24.314,25.241 24.053,25.801 23.828,26.38C25.308,25.126 26.911,24.404 27.92,23.955C28.279,23.796 28.693,23.827 29.023,24.042C29.352,24.254 29.55,24.621 29.55,25.013C29.55,26.769 29.549,29.174 27.933,31.638C26.47,33.871 24.024,34.82 22.637,35.2C22.693,36.425 22.859,37.614 23.127,38.764C23.613,37.668 24.372,36.648 25.438,35.727C25.887,35.339 26.557,35.356 26.987,35.759C27.091,35.858 29.55,38.201 29.55,42.296C29.55,44.112 28.524,45.85 27.417,47.083C27.512,47.189 27.596,47.305 27.694,47.408C28.37,48.13 29.295,48.876 30.318,49.621C29.679,47.769 29.56,46.081 29.552,45.955C29.53,45.612 29.663,45.278 29.912,45.04C30.162,44.804 30.506,44.693 30.843,44.73C31.014,44.75 35.038,45.243 37.425,47.85C39.369,49.972 38.839,53.252 38.431,54.824C40.981,56.522 43.422,58.787 44.544,61.694Z" style="fill:url(#_Linear2);fill-rule:nonzero;"/>
    </g>
    <g transform="matrix(1,0,0,1,-13.32,-11.1)">
        <path d="M56.416,14.655C56.918,14.576 57.52,14.516 58.221,14.477C58.935,14.437 59.557,14.417 60.086,14.417C60.588,14.417 61.197,14.437 61.911,14.477C62.638,14.516 63.253,14.589 63.756,14.695L72.286,41.338C71.85,41.589 71.281,41.781 70.58,41.913C69.893,42.045 69.251,42.111 68.656,42.111C67.651,42.111 66.864,41.88 66.295,41.417C65.727,40.941 65.251,40.022 64.867,38.66L62.03,28.602C61.726,27.491 61.369,26.181 60.959,24.674C60.562,23.166 60.192,21.757 59.848,20.448L59.61,20.448C59.478,21.175 59.299,21.989 59.074,22.888C58.849,23.787 58.611,24.687 58.36,25.586C58.122,26.472 57.897,27.279 57.685,28.006L53.638,41.794C53.242,41.887 52.818,41.946 52.369,41.972C51.919,42.012 51.443,42.032 50.94,42.032C50.464,42.032 49.922,41.992 49.314,41.913C48.719,41.834 48.242,41.728 47.885,41.596L47.647,41.258L56.416,14.655ZM63.181,36.081L56.237,36.081C55.999,36.067 55.761,36.061 55.523,36.061C55.285,36.048 55.067,36.041 54.868,36.041L51.536,36.041L53.46,31.101L57.031,31.101C57.269,31.088 57.507,31.081 57.745,31.081C57.983,31.068 58.195,31.061 58.38,31.061L61.276,31.061C61.475,31.061 61.686,31.068 61.911,31.081C62.149,31.081 62.387,31.088 62.625,31.101L66.315,31.101L67.922,36.041L64.569,36.041C64.384,36.041 64.166,36.048 63.915,36.061C63.677,36.061 63.432,36.067 63.181,36.081Z" style="fill:rgb(28,17,40);fill-rule:nonzero;"/>
    </g>
    <g transform="matrix(1,0,0,1,-13.32,-11.1)">
        <path d="M96.07,16.897C96.004,17.796 95.673,18.676 95.078,19.535C94.496,20.395 93.881,21.037 93.233,21.46C92.268,20.812 91.209,20.296 90.059,19.912C88.921,19.516 87.797,19.317 86.686,19.317C85.351,19.317 84.193,19.635 83.215,20.269C82.236,20.904 81.475,21.89 80.933,23.225C80.404,24.561 80.14,26.294 80.14,28.423C80.14,31.518 80.708,33.779 81.846,35.208C82.996,36.636 84.636,37.35 86.766,37.35C88.062,37.35 89.226,37.231 90.257,36.993C91.289,36.755 92.142,36.543 92.816,36.358L96.129,40.703C95.362,40.954 94.436,41.212 93.352,41.477C92.281,41.728 91.097,41.933 89.801,42.092C88.505,42.264 87.129,42.349 85.675,42.349C83.638,42.349 81.866,42.025 80.358,41.377C78.85,40.729 77.6,39.797 76.608,38.58C75.617,37.363 74.876,35.895 74.387,34.176C73.897,32.457 73.653,30.526 73.653,28.383C73.653,25.976 74.003,23.88 74.704,22.095C75.405,20.296 76.357,18.801 77.561,17.611C78.764,16.421 80.12,15.535 81.628,14.953C83.135,14.358 84.696,14.06 86.309,14.06C88.121,14.06 89.86,14.325 91.527,14.854C93.207,15.369 94.721,16.05 96.07,16.897ZM90.178,34.394C90.178,33.455 90.211,32.463 90.277,31.419C90.343,30.36 90.502,29.388 90.753,28.502L96.129,30.288L96.129,40.703L90.178,40.782L90.178,34.394ZM91.943,26.36C93.517,26.36 94.608,26.73 95.217,27.471C95.825,28.198 96.129,29.137 96.129,30.288L96.129,31.637L88.313,31.637C87.295,31.637 86.534,31.445 86.032,31.061C85.529,30.678 85.278,29.984 85.278,28.978C85.278,28.555 85.317,28.106 85.397,27.629C85.489,27.153 85.602,26.73 85.734,26.36L91.943,26.36Z" style="fill:rgb(28,17,40);fill-rule:nonzero;"/>
    </g>
    <g transform="matrix(1,0,0,1,-13.32,-11.1)">
        <path d="M106.239,28.185C106.239,29.23 106.292,30.294 106.398,31.379C106.517,32.463 106.748,33.469 107.092,34.394C107.449,35.307 107.971,36.048 108.659,36.616C109.347,37.185 110.266,37.469 111.417,37.469C112.567,37.469 113.48,37.185 114.154,36.616C114.842,36.048 115.358,35.307 115.702,34.394C116.059,33.469 116.29,32.463 116.396,31.379C116.515,30.294 116.575,29.23 116.575,28.185C116.575,27.14 116.515,26.082 116.396,25.011C116.29,23.926 116.059,22.928 115.702,22.015C115.358,21.089 114.842,20.349 114.154,19.793C113.48,19.225 112.567,18.94 111.417,18.94C110.266,18.94 109.347,19.225 108.659,19.793C107.971,20.349 107.449,21.089 107.092,22.015C106.748,22.928 106.517,23.926 106.398,25.011C106.292,26.082 106.239,27.14 106.239,28.185ZM99.613,28.185C99.613,25.355 100.036,22.881 100.882,20.765C101.742,18.649 103.045,17.003 104.791,15.826C106.536,14.649 108.745,14.06 111.417,14.06C114.101,14.06 116.317,14.655 118.062,15.845C119.808,17.023 121.104,18.669 121.951,20.785C122.797,22.901 123.22,25.368 123.22,28.185C123.22,31.028 122.791,33.515 121.931,35.644C121.071,37.76 119.769,39.407 118.023,40.584C116.29,41.761 114.088,42.349 111.417,42.349C108.732,42.349 106.517,41.754 104.771,40.564C103.025,39.374 101.729,37.721 100.882,35.604C100.036,33.475 99.613,31.002 99.613,28.185Z" style="fill:rgb(28,17,40);fill-rule:nonzero;"/>
    </g>
    <g transform="matrix(1,0,0,1,-13.32,-11.1)">
        <path d="M147.067,23.047C147.067,24.316 146.822,25.447 146.333,26.439C145.843,27.418 145.228,28.231 144.488,28.879C143.747,29.527 143,30.003 142.246,30.308C142.987,30.572 143.602,31.028 144.091,31.676C144.594,32.325 144.997,33.085 145.301,33.958L146.491,37.311C146.716,37.932 146.987,38.494 147.305,38.997C147.635,39.486 148.019,39.903 148.455,40.247C148.045,40.776 147.45,41.219 146.67,41.576C145.903,41.933 145.089,42.111 144.23,42.111C143.092,42.111 142.266,41.807 141.75,41.199C141.234,40.577 140.765,39.658 140.341,38.441L138.913,34.295C138.688,33.607 138.338,33.025 137.862,32.549C137.386,32.06 136.618,31.815 135.56,31.815L131.335,31.815L131.335,27.074C131.851,27.048 132.486,27.021 133.239,26.995C134.006,26.955 134.734,26.929 135.422,26.915C136.109,26.889 136.592,26.876 136.87,26.876C137.875,26.876 138.642,26.697 139.171,26.34C139.713,25.97 140.084,25.494 140.282,24.912C140.494,24.33 140.599,23.708 140.599,23.047C140.599,22.359 140.494,21.724 140.282,21.142C140.084,20.56 139.713,20.098 139.171,19.754C138.642,19.397 137.875,19.218 136.87,19.218L135.521,19.218C135.031,19.205 134.496,19.192 133.914,19.178L133.914,41.754C133.385,41.847 132.829,41.906 132.247,41.933C131.679,41.972 131.183,41.992 130.76,41.992C130.389,41.992 129.9,41.972 129.292,41.933C128.683,41.906 128.128,41.847 127.625,41.754L127.625,14.854L127.903,14.576C129.596,14.536 131.222,14.503 132.783,14.477C134.357,14.437 135.898,14.417 137.405,14.417C139.244,14.417 140.89,14.721 142.345,15.33C143.8,15.925 144.951,16.857 145.797,18.127C146.643,19.397 147.067,21.037 147.067,23.047Z" style="fill:rgb(28,17,40);fill-rule:nonzero;"/>
    </g>
    <g transform="matrix(1,0,0,1,-13.32,-11.1)">
        <path d="M158.126,14.655C158.628,14.576 159.23,14.516 159.931,14.477C160.645,14.437 161.267,14.417 161.796,14.417C162.299,14.417 162.907,14.437 163.621,14.477C164.349,14.516 164.964,14.589 165.466,14.695L173.997,41.338C173.56,41.589 172.991,41.781 172.29,41.913C171.603,42.045 170.961,42.111 170.366,42.111C169.361,42.111 168.574,41.88 168.005,41.417C167.437,40.941 166.961,40.022 166.577,38.66L163.74,28.602C163.436,27.491 163.079,26.181 162.669,24.674C162.272,23.166 161.902,21.757 161.558,20.448L161.32,20.448C161.188,21.175 161.009,21.989 160.784,22.888C160.559,23.787 160.321,24.687 160.07,25.586C159.832,26.472 159.607,27.279 159.396,28.006L155.349,41.794C154.952,41.887 154.529,41.946 154.079,41.972C153.629,42.012 153.153,42.032 152.651,42.032C152.174,42.032 151.632,41.992 151.024,41.913C150.429,41.834 149.953,41.728 149.595,41.596L149.357,41.258L158.126,14.655ZM164.891,36.081L157.947,36.081C157.709,36.067 157.471,36.061 157.233,36.061C156.995,36.048 156.777,36.041 156.579,36.041L153.246,36.041L155.17,31.101L158.741,31.101C158.979,31.088 159.217,31.081 159.455,31.081C159.693,31.068 159.905,31.061 160.09,31.061L162.986,31.061C163.185,31.061 163.396,31.068 163.621,31.081C163.859,31.081 164.097,31.088 164.335,31.101L168.025,31.101L169.632,36.041L166.279,36.041C166.094,36.041 165.876,36.048 165.625,36.061C165.387,36.061 165.142,36.067 164.891,36.081Z" style="fill:rgb(28,17,40);fill-rule:nonzero;"/>
    </g>
    <g transform="matrix(1,0,0,1,-13.32,-11.1)">
        <path d="M49.342,48.926L46.424,48.926L46.424,48.166L53.137,48.166L53.137,48.926L50.22,48.926L50.22,56.469L49.342,56.469L49.342,48.926Z" style="fill:rgb(28,17,40);fill-rule:nonzero;"/>
    </g>
    <g transform="matrix(1,0,0,1,-13.32,-11.1)">
        <path d="M61.478,48.166L61.478,56.469L60.612,56.469L60.612,52.638L55.417,52.638L55.417,56.469L54.539,56.469L54.539,48.166L55.417,48.166L55.417,51.867L60.612,51.867L60.612,48.166L61.478,48.166Z" style="fill:rgb(28,17,40);fill-rule:nonzero;"/>
    </g>
    <g transform="matrix(1,0,0,1,-13.32,-11.1)">
        <path d="M70.059,55.71L70.059,56.469L64.188,56.469L64.188,48.166L69.881,48.166L69.881,48.926L65.065,48.926L65.065,51.879L69.359,51.879L69.359,52.626L65.065,52.626L65.065,55.71L70.059,55.71Z" style="fill:rgb(28,17,40);fill-rule:nonzero;"/>
    </g>
    <g transform="matrix(1,0,0,1,-13.32,-11.1)">
        <path d="M81.097,55.71L81.097,56.469L75.226,56.469L75.226,48.166L80.919,48.166L80.919,48.926L76.103,48.926L76.103,51.879L80.397,51.879L80.397,52.626L76.103,52.626L76.103,55.71L81.097,55.71Z" style="fill:rgb(28,17,40);fill-rule:nonzero;"/>
    </g>
    <g transform="matrix(1,0,0,1,-13.32,-11.1)">
        <path d="M83.16,48.166L84.037,48.166L84.037,55.71L88.687,55.71L88.687,56.469L83.16,56.469L83.16,48.166Z" style="fill:rgb(28,17,40);fill-rule:nonzero;"/>
    </g>
    <g transform="matrix(1,0,0,1,-13.32,-11.1)">
        <path d="M96.015,55.71L96.015,56.469L90.144,56.469L90.144,48.166L95.837,48.166L95.837,48.926L91.022,48.926L91.022,51.879L95.315,51.879L95.315,52.626L91.022,52.626L91.022,55.71L96.015,55.71Z" style="fill:rgb(28,17,40);fill-rule:nonzero;"/>
    </g>
    <g transform="matrix(1,0,0,1,-13.32,-11.1)">
        <path d="M101.637,56.54C100.815,56.54 100.071,56.358 99.407,55.994C98.751,55.631 98.233,55.129 97.854,54.488C97.482,53.84 97.296,53.116 97.296,52.318C97.296,51.519 97.482,50.799 97.854,50.159C98.233,49.511 98.755,49.005 99.419,48.641C100.083,48.277 100.827,48.095 101.649,48.095C102.266,48.095 102.835,48.198 103.357,48.404C103.879,48.609 104.321,48.91 104.685,49.305L104.128,49.862C103.479,49.206 102.661,48.878 101.673,48.878C101.016,48.878 100.419,49.028 99.882,49.329C99.344,49.629 98.921,50.04 98.613,50.562C98.312,51.084 98.162,51.669 98.162,52.318C98.162,52.966 98.312,53.551 98.613,54.073C98.921,54.595 99.344,55.006 99.882,55.306C100.419,55.607 101.016,55.757 101.673,55.757C102.669,55.757 103.487,55.425 104.128,54.761L104.685,55.318C104.321,55.714 103.875,56.018 103.345,56.231C102.823,56.437 102.254,56.54 101.637,56.54Z" style="fill:rgb(28,17,40);fill-rule:nonzero;"/>
    </g>
    <g transform="matrix(1,0,0,1,-13.32,-11.1)">
        <path d="M108.065,48.926L105.147,48.926L105.147,48.166L111.86,48.166L111.86,48.926L108.943,48.926L108.943,56.469L108.065,56.469L108.065,48.926Z" style="fill:rgb(28,17,40);fill-rule:nonzero;"/>
    </g>
    <g transform="matrix(1,0,0,1,-13.32,-11.1)">
        <rect x="113.262" y="48.166" width="0.878" height="8.302" style="fill:rgb(28,17,40);fill-rule:nonzero;"/>
    </g>
    <g transform="matrix(1,0,0,1,-13.32,-11.1)">
        <path d="M120.471,56.54C119.648,56.54 118.901,56.358 118.229,55.994C117.565,55.623 117.043,55.117 116.663,54.476C116.292,53.836 116.106,53.116 116.106,52.318C116.106,51.519 116.292,50.799 116.663,50.159C117.043,49.519 117.565,49.016 118.229,48.653C118.901,48.281 119.648,48.095 120.471,48.095C121.293,48.095 122.032,48.277 122.688,48.641C123.353,49.005 123.874,49.511 124.254,50.159C124.634,50.799 124.823,51.519 124.823,52.318C124.823,53.116 124.634,53.84 124.254,54.488C123.874,55.129 123.353,55.631 122.688,55.994C122.032,56.358 121.293,56.54 120.471,56.54ZM120.471,55.757C121.127,55.757 121.72,55.611 122.25,55.318C122.779,55.018 123.194,54.607 123.495,54.085C123.795,53.555 123.946,52.966 123.946,52.318C123.946,51.669 123.795,51.084 123.495,50.562C123.194,50.032 122.779,49.621 122.25,49.329C121.72,49.028 121.127,48.878 120.471,48.878C119.814,48.878 119.217,49.028 118.68,49.329C118.15,49.621 117.731,50.032 117.422,50.562C117.122,51.084 116.972,51.669 116.972,52.318C116.972,52.966 117.122,53.555 117.422,54.085C117.731,54.607 118.15,55.018 118.68,55.318C119.217,55.611 119.814,55.757 120.471,55.757Z" style="fill:rgb(28,17,40);fill-rule:nonzero;"/>
    </g>
    <g transform="matrix(1,0,0,1,-13.32,-11.1)">
        <path d="M133.729,48.166L133.729,56.469L133.005,56.469L127.668,49.732L127.668,56.469L126.791,56.469L126.791,48.166L127.514,48.166L132.863,54.903L132.863,48.166L133.729,48.166Z" style="fill:rgb(28,17,40);fill-rule:nonzero;"/>
    </g>
    <g transform="matrix(1,0,0,1,-13.32,-11.1)">
        <path d="M145.39,52.318L146.232,52.318L146.232,55.484C145.845,55.824 145.386,56.085 144.856,56.267C144.326,56.449 143.769,56.54 143.184,56.54C142.354,56.54 141.606,56.358 140.942,55.994C140.278,55.631 139.756,55.129 139.377,54.488C138.997,53.84 138.807,53.116 138.807,52.318C138.807,51.519 138.997,50.799 139.377,50.159C139.756,49.511 140.278,49.005 140.942,48.641C141.606,48.277 142.358,48.095 143.196,48.095C143.828,48.095 144.409,48.198 144.939,48.404C145.469,48.601 145.916,48.898 146.279,49.293L145.734,49.851C145.078,49.202 144.243,48.878 143.231,48.878C142.559,48.878 141.95,49.028 141.405,49.329C140.867,49.621 140.444,50.032 140.136,50.562C139.827,51.084 139.673,51.669 139.673,52.318C139.673,52.966 139.827,53.551 140.136,54.073C140.444,54.595 140.867,55.006 141.405,55.306C141.942,55.607 142.547,55.757 143.219,55.757C144.073,55.757 144.797,55.544 145.39,55.117L145.39,52.318Z" style="fill:rgb(28,17,40);fill-rule:nonzero;"/>
    </g>
    <g transform="matrix(1,0,0,1,-13.32,-11.1)">
        <path d="M153.923,54.251L149.297,54.251L148.301,56.469L147.388,56.469L151.183,48.166L152.049,48.166L155.844,56.469L154.919,56.469L153.923,54.251ZM153.602,53.539L151.61,49.08L149.617,53.539L153.602,53.539Z" style="fill:rgb(28,17,40);fill-rule:nonzero;"/>
    </g>
    <g transform="matrix(1,0,0,1,-13.32,-11.1)">
        <path d="M165.84,48.166L165.84,56.469L164.998,56.469L164.998,49.827L161.736,55.413L161.321,55.413L158.06,49.862L158.06,56.469L157.217,56.469L157.217,48.166L157.941,48.166L161.547,54.322L165.116,48.166L165.84,48.166Z" style="fill:rgb(28,17,40);fill-rule:nonzero;"/>
    </g>
    <g transform="matrix(1,0,0,1,-13.32,-11.1)">
        <path d="M174.416,55.71L174.416,56.469L168.545,56.469L168.545,48.166L174.238,48.166L174.238,48.926L169.423,48.926L169.423,51.879L173.716,51.879L173.716,52.626L169.423,52.626L169.423,55.71L174.416,55.71Z" style="fill:rgb(28,17,40);fill-rule:nonzero;"/>
    </g>
    <defs>
        <linearGradient id="_Linear1" x1="0" y1="0" x2="1" y2="0" gradientUnits="userSpaceOnUse" gradientTransform="matrix(65.245,-12.272,12.272,65.245,169.809,92.0304)"><stop offset="0" style="stop-color:rgb(227,212,237);stop-opacity:1"/><stop offset="1" style="stop-color:rgb(110,116,194);stop-opacity:1"/></linearGradient>
        <linearGradient id="_Linear2" x1="0" y1="0" x2="1" y2="0" gradientUnits="userSpaceOnUse" gradientTransform="matrix(-65.2452,-12.272,12.272,-65.2452,51.8337,92.0304)"><stop offset="0" style="stop-color:rgb(227,212,237);stop-opacity:1"/><stop offset="1" style="stop-color:rgb(110,116,194);stop-opacity:1"/></linearGradient>
    </defs>
</svg>
